<?xml version="1.0" encoding="UTF-8"?>
<svg width="31px" height="31px" viewBox="0 0 31 31" version="1.1" xmlns="http://www.w3.org/2000/svg" xmlns:xlink="http://www.w3.org/1999/xlink">
    <!-- Generator: Sketch 49 (51002) - http://www.bohemiancoding.com/sketch -->
    <title>cacheIcon-light</title>
    <desc>Created with Sketch.</desc>
    <defs>
        <linearGradient x1="50%" y1="0%" x2="50%" y2="100%" id="linearGradient-1">
            <stop stop-color="#ACE8EE" offset="0%"></stop>
            <stop stop-color="#74CDD9" offset="100%"></stop>
        </linearGradient>
        <linearGradient x1="100%" y1="39.1686893%" x2="13.5058443%" y2="55.376647%" id="linearGradient-2">
            <stop stop-color="#ADE8EE" offset="0%"></stop>
            <stop stop-color="#74CDD9" offset="100%"></stop>
        </linearGradient>
    </defs>
    <g id="Coming-Soon-Landing-Page" stroke="none" stroke-width="1" fill="none" fill-rule="evenodd">
        <g id="Home---COMING-SOON-Copy" transform="translate(-176.000000, -14.000000)">
            <g id="Group-7" transform="translate(176.000000, 13.000000)">
                <g id="cacheIcon-light" transform="translate(0.000000, 1.000000)">
                    <circle id="Oval" fill="#F2F1F7" cx="15.5" cy="15.5" r="15.5"></circle>
                    <path d="M31,15.5 C31,6.93958638 24.0604136,0 15.5,0 C6.93958638,0 0,6.93958638 0,15.5 C0,24.0604136 31,24.0604136 31,15.5 Z" id="Oval" fill="#FFFFFF"></path>
                    <g id="Group" transform="translate(5.782227, 5.691406)">
                        <path d="M5.0859375,14.8014315 C5.91854724,15.2730807 6.88051851,15.5425994 7.90431035,15.5425994 C9.51824374,15.5425994 11.0490839,14.8602205 12.1261048,13.6835937 L15.7119141,15.7562418 C10.0849168,16.1059504 6.54292459,15.7876803 5.0859375,14.8014315 Z" id="Combined-Shape" fill="#3C7595"></path>
                        <path d="M6.99316406,14.8014315 C7.8257738,15.2730807 8.78774507,15.5425994 9.81153691,15.5425994 C11.4254703,15.5425994 12.9563105,14.8602205 14.0333313,13.6835937 L17.6191406,15.7562418 C11.9921433,16.1059504 8.45015115,15.7876803 6.99316406,14.8014315 Z" id="Combined-Shape" fill="url(#linearGradient-1)"></path>
                        <path d="M9.81432446,0 C12.906859,0 15.7661757,1.43582498 17.6191406,3.87896629 L14.0346116,5.9575555 C12.9579753,4.77755683 11.4276816,4.09322103 9.81432446,4.09322103 C6.65789459,4.09322103 4.08930186,6.66427549 4.08930186,9.82373047 C4.08930186,11.9587783 5.33407548,13.6816963 6.99695785,14.8109474 C8.45342475,15.8000233 11.9941523,16.1192057 17.6191406,15.7684947 C16.9840242,16.6058981 16.2306792,17.3249597 15.3902383,17.9084245 C13.7786759,19.0272297 11.8468715,19.6474609 9.81432446,19.6474609 C4.40238944,19.6474609 0,15.2408531 0,9.82373047 C0,4.40660867 4.40238944,0 9.81432446,0 Z" id="Path" fill="#3C7595"></path>
                        <path d="M9.81432446,0 C12.906859,0 15.7661757,1.43361262 17.6191406,3.87298945 L14.0346116,5.94837591 C12.9579753,4.77019542 11.4276816,4.08691406 9.81432446,4.08691406 C2.63372851,3.87298945 0.413970126,9.31081986 0,9.80859375 C0,4.39981883 4.40238944,0 9.81432446,0 Z" id="Path" fill="url(#linearGradient-2)"></path>
                    </g>
                </g>
            </g>
        </g>
    </g>
</svg>